<svg xmlns="http://www.w3.org/2000/svg" viewBox="0 0 16 16" fill="none" shape-rendering="crispEdges"><metadata xmlns:rdf="http://www.w3.org/1999/02/22-rdf-syntax-ns#" xmlns:xsi="http://www.w3.org/2001/XMLSchema-instance" xmlns:dc="http://purl.org/dc/elements/1.1/" xmlns:dcterms="http://purl.org/dc/terms/"><rdf:RDF><rdf:Description><dc:title>Pixel Art</dc:title><dc:creator>DiceBear</dc:creator><dc:source xsi:type="dcterms:URI">https://www.figma.com/community/file/1198754108850888330</dc:source><dcterms:license xsi:type="dcterms:URI">https://creativecommons.org/publicdomain/zero/1.0/</dcterms:license><dc:rights>„Pixel Art” (https://www.figma.com/community/file/1198754108850888330) by „DiceBear”, licensed under „CC0 1.0” (https://creativecommons.org/publicdomain/zero/1.0/)</dc:rights></rdf:Description></rdf:RDF></metadata><mask id="viewboxMask"><rect width="16" height="16" rx="0" ry="0" x="0" y="0" fill="#fff" /></mask><g mask="url(#viewboxMask)"><path d="M4 2h8v1h1v3h1v2h-1v3h-1v1H9v1h4v1h1v2H2v-2h1v-1h4v-1H4v-1H3V8H2V6h1V3h1V2Z" fill="#f5cfa0"/><path d="M4 2h8v1h1v3h1v2h-1v3h-1v1H4v-1H3V8H2V6h1V3h1V2Z" fill="#fff" fill-opacity=".1"/><path d="M10 13h3v1h1v2H2v-2h1v-1h3v2h4v-2Z" fill="#5bc0de"/><path d="M10 5h1v2H9V6h1V5ZM5 5h1v2H4V6h1V5Z" fill="#fff"/><path fill="#76778b" d="M11 6h-1v1h1zM6 6H5v1h1z"/><path d="M2 5h5v1H4v1H3V6H2V5ZM7 7v1H4V7h3ZM9 7H7V6h2v1ZM12 7H9v1h3V7ZM12 6H9V5h5v1h-1v1h-1V6Z" fill="#a04b5d"/><path fill="#fff" fill-opacity=".3" d="M4 6h3v1H4zM9 6h3v1H9z"/><path fill="#fff" fill-opacity=".2" d="M12 5h2v1h-2zM2 5h2v1H2zM7 6h2v1H7z"/><mask id="beardVariant01-a" style="mask-type:luminance" maskUnits="userSpaceOnUse" x="3" y="8" width="10" height="4"><path opacity=".9" d="M3 8h2v1h1v1h4V9h1V8h2v3h-1v1H4v-1H3V8Z" fill="#009bbd"/></mask><g mask="url(#beardVariant01-a)"><path fill="#009bbd" d="M0 0h16v16H0z"/><path fill="#fff" fill-opacity=".3" d="M0 0h16v16H0z"/></g><path d="M7 9v2h2v-1H8V9H7Z" fill="#c98276"/><path d="M9 11v-1H8V9H7v1h1v1h1Z" fill="#fff" fill-opacity=".2"/><g fill="#009bbd"><path d="M4 2H3v3h1zM13 2h-1v3h1z"/><path d="M12 1H3v2h9z"/><path d="M4 2H2v2h2zM14 2h-2v2h2z"/></g><path d="M4 0h8v1h1v1h1v2H2V2h1V1h1V0Z" fill="#2e1e05"/><path fill="#fff" fill-opacity=".3" d="M13 1v1H3V1zM14 3v1H2V3z"/></g></svg>