<svg xmlns="http://www.w3.org/2000/svg" viewBox="0 0 16 16" fill="none" shape-rendering="crispEdges"><metadata xmlns:rdf="http://www.w3.org/1999/02/22-rdf-syntax-ns#" xmlns:xsi="http://www.w3.org/2001/XMLSchema-instance" xmlns:dc="http://purl.org/dc/elements/1.1/" xmlns:dcterms="http://purl.org/dc/terms/"><rdf:RDF><rdf:Description><dc:title>Pixel Art</dc:title><dc:creator>DiceBear</dc:creator><dc:source xsi:type="dcterms:URI">https://www.figma.com/community/file/1198754108850888330</dc:source><dcterms:license xsi:type="dcterms:URI">https://creativecommons.org/publicdomain/zero/1.0/</dcterms:license><dc:rights>„Pixel Art” (https://www.figma.com/community/file/1198754108850888330) by „DiceBear”, licensed under „CC0 1.0” (https://creativecommons.org/publicdomain/zero/1.0/)</dc:rights></rdf:Description></rdf:RDF></metadata><mask id="viewboxMask"><rect width="16" height="16" rx="0" ry="0" x="0" y="0" fill="#fff" /></mask><g mask="url(#viewboxMask)"><rect fill="#6f5f8f" width="16" height="16" x="0" y="0" /><path d="M4 2h8v1h1v3h1v2h-1v3h-1v1H9v1h4v1h1v2H2v-2h1v-1h4v-1H4v-1H3V8H2V6h1V3h1V2Z" fill="#cb9e6e"/><path d="M4 2h8v1h1v3h1v2h-1v3h-1v1H4v-1H3V8H2V6h1V3h1V2Z" fill="#fff" fill-opacity=".1"/><path d="M13 7h2v2h-2zM1 7h2v2H1z" fill="#c0c0c0"/><path d="M4 13h1v2h6v-2h1v2h1v1H3v-1h1v-2Z" fill="#b39eb5"/><path fill="#fff" fill-opacity=".2" d="M4 13h1v2H4zM11 13h1v2h-1z"/><g fill-rule="evenodd" clip-rule="evenodd"><path d="M11 5h-1v2h2V6h-1V5ZM6 5H5v2h2V6H6V5Z" fill="#fff"/><path d="M10 5v1h1v1H9V5h1ZM5 5v1h1v1H4V5h1Z" fill="#76778b"/><path d="M10 5v1H9V5h1Zm1 1v1h-1V6h1ZM5 5v1H4V5h1Zm1 1v1H5V6h1Z" fill="#fff" fill-opacity=".5"/></g><path fill-rule="evenodd" clip-rule="evenodd" d="M2 5v1h1v2h1v1h3V8h2v1h3V8h1V6h1V5H2Zm10 3H9V6h3v2ZM7 8H4V6h3v2Z" fill="#ffd700"/><path fill="#fff" fill-opacity=".3" d="M9 6h3v2H9zM4 6h3v2H4z"/><path fill="#fff" fill-opacity=".2" d="M7 5h2v1H7zM2 5h2v1H2zM12 5h2v1h-2z"/><mask id="beardVariant04-a" style="mask-type:luminance" maskUnits="userSpaceOnUse" x="6" y="11" width="4" height="1"><path opacity=".9" fill="#611c17" d="M6 11h4v1H6z"/></mask><g mask="url(#beardVariant04-a)"><path fill="#611c17" d="M0 0h16v16H0z"/><path fill="#fff" fill-opacity=".3" d="M0 0h16v16H0z"/></g><path d="M6 9h3v1H6V9Z" fill="#c98276"/><g fill="#611c17"><path d="M4 2H3v3h1zM13 2h-1v3h1z"/><path d="M12 1H3v2h9z"/><path d="M4 2H2v2h2zM14 2h-2v2h2z"/></g><path d="M12 1H4v1H3v2h12V3h-2V2h-1V1Z" fill="#428bca"/><path fill="#fff" fill-opacity=".3" d="M11 4h-1V1h1z"/></g></svg>