<svg xmlns="http://www.w3.org/2000/svg" viewBox="0 0 16 16" fill="none" shape-rendering="crispEdges"><metadata xmlns:rdf="http://www.w3.org/1999/02/22-rdf-syntax-ns#" xmlns:xsi="http://www.w3.org/2001/XMLSchema-instance" xmlns:dc="http://purl.org/dc/elements/1.1/" xmlns:dcterms="http://purl.org/dc/terms/"><rdf:RDF><rdf:Description><dc:title>Pixel Art</dc:title><dc:creator>DiceBear</dc:creator><dc:source xsi:type="dcterms:URI">https://www.figma.com/community/file/1198754108850888330</dc:source><dcterms:license xsi:type="dcterms:URI">https://creativecommons.org/publicdomain/zero/1.0/</dcterms:license><dc:rights>„Pixel Art” (https://www.figma.com/community/file/1198754108850888330) by „DiceBear”, licensed under „CC0 1.0” (https://creativecommons.org/publicdomain/zero/1.0/)</dc:rights></rdf:Description></rdf:RDF></metadata><mask id="viewboxMask"><rect width="16" height="16" rx="0" ry="0" x="0" y="0" fill="#fff" /></mask><g mask="url(#viewboxMask)"><rect fill="#a19e99" width="16" height="16" x="0" y="0" /><path d="M4 2h8v1h1v3h1v2h-1v3h-1v1H9v1h4v1h1v2H2v-2h1v-1h4v-1H4v-1H3V8H2V6h1V3h1V2Z" fill="#8d5524"/><path d="M4 2h8v1h1v3h1v2h-1v3h-1v1H4v-1H3V8H2V6h1V3h1V2Z" fill="#fff" fill-opacity=".1"/><path d="M13 7h2v2h-2zM1 7h2v2H1z" fill="#ffd700"/><path d="M5 13H4v3h3v-1H6v-1H5v-1ZM12 13h-1v1h-1v1H9v1h3v-3Z" fill="#aec6cf"/><path fill="#fff" fill-opacity=".5" d="M4 13h1v1H4zM5 14h1v1H5zM6 15h1v1H6zM9 15h1v1H9zM10 14h1v1h-1z"/><path fill="#fff" fill-opacity=".3" d="M11 14h1v1h-1z"/><path fill="#fff" fill-opacity=".5" d="M11 13h1v1h-1z"/><path fill="#fff" fill-opacity=".3" d="M10 15h1v1h-1zM5 15h1v1H5zM4 14h1v1H4z"/><path fill="#fff" d="M12 5H9v3h3zM7 5H4v3h3z"/><path fill="#876658" d="M12 6h-2v1h2zM7 6H5v1h2z"/><path fill="#fff" fill-opacity=".7" d="M12 6h-1v1h1zM7 6H6v1h1z"/><path d="M6 9h3v1H6V9Z" fill="#e35d6a"/><path d="M3 3h10v1H3zM4 2h8v1H4zM2 4h2v2H2zM12 4h2v2h-2z" fill="#603015"/><path d="M12 1H4v1H3v2h12V3h-2V2h-1V1Z" fill="#c0c0c0"/><path fill="#fff" fill-opacity=".3" d="M11 4h-1V1h1z"/></g></svg>