<svg xmlns="http://www.w3.org/2000/svg" viewBox="0 0 16 16" fill="none" shape-rendering="crispEdges"><metadata xmlns:rdf="http://www.w3.org/1999/02/22-rdf-syntax-ns#" xmlns:xsi="http://www.w3.org/2001/XMLSchema-instance" xmlns:dc="http://purl.org/dc/elements/1.1/" xmlns:dcterms="http://purl.org/dc/terms/"><rdf:RDF><rdf:Description><dc:title>Pixel Art</dc:title><dc:creator>DiceBear</dc:creator><dc:source xsi:type="dcterms:URI">https://www.figma.com/community/file/1198754108850888330</dc:source><dcterms:license xsi:type="dcterms:URI">https://creativecommons.org/publicdomain/zero/1.0/</dcterms:license><dc:rights>„Pixel Art” (https://www.figma.com/community/file/1198754108850888330) by „DiceBear”, licensed under „CC0 1.0” (https://creativecommons.org/publicdomain/zero/1.0/)</dc:rights></rdf:Description></rdf:RDF></metadata><mask id="viewboxMask"><rect width="16" height="16" rx="0" ry="0" x="0" y="0" fill="#fff" /></mask><g mask="url(#viewboxMask)"><rect fill="#d4af37" width="16" height="16" x="0" y="0" /><path d="M4 2h8v1h1v3h1v2h-1v3h-1v1H9v1h4v1h1v2H2v-2h1v-1h4v-1H4v-1H3V8H2V6h1V3h1V2Z" fill="#eac393"/><path d="M4 2h8v1h1v3h1v2h-1v3h-1v1H4v-1H3V8H2V6h1V3h1V2Z" fill="#fff" fill-opacity=".1"/><path fill="#ffd700" d="M13 7h1v2h-1zM2 7h1v2H2z"/><path fill="#fff" fill-opacity=".5" d="M2 7h1v1H2zM13 7h1v1h-1z"/><path d="M5 13H4v3h3v-1H6v-1H5v-1ZM12 13h-1v1h-1v1H9v1h3v-3Z" fill="#ffb347"/><path fill="#fff" d="M4 5h3v2H4zM9 5h3v2H9z"/><path fill="#697b94" d="M11 6h1v1h-1zM6 6h1v1H6z"/><path fill-rule="evenodd" clip-rule="evenodd" d="M12 4H9v1H7V4H4v1H2v1h1v2h1v1h3V8h2v1h3V8h1V6h1V5h-2V4Zm0 1v3H9V5h3ZM7 8H4V5h3v3Z" fill="#ffd700"/><path fill="#000" fill-opacity=".3" d="M9 5h3v3H9zM4 5h3v3H4z"/><path fill="#fff" fill-opacity=".2" d="M2 5h1v1H2zM13 5h1v1h-1z"/><mask id="beardVariant04-a" style="mask-type:luminance" maskUnits="userSpaceOnUse" x="6" y="11" width="4" height="1"><path opacity=".9" fill="#603a14" d="M6 11h4v1H6z"/></mask><g mask="url(#beardVariant04-a)"><path fill="#603a14" d="M0 0h16v16H0z"/><path fill="#fff" fill-opacity=".3" d="M0 0h16v16H0z"/></g><path d="M6 9h3v1H6V9Z" fill="#d29985"/><path d="M9 1H8v3h1zM8 2H7v2h1zM10 0H9v3h1zM11 1h-1v1h1z" fill="#603a14"/><path d="M4 0h8v1h1v1h1v3H2V2h1V1h1V0Z" fill="#c0c0c0"/><path fill="#fff" fill-opacity=".3" d="M11 2h1v3h-1zM9 2h1v3H9z"/></g></svg>