<svg xmlns="http://www.w3.org/2000/svg" viewBox="0 0 16 16" fill="none" shape-rendering="crispEdges"><metadata xmlns:rdf="http://www.w3.org/1999/02/22-rdf-syntax-ns#" xmlns:xsi="http://www.w3.org/2001/XMLSchema-instance" xmlns:dc="http://purl.org/dc/elements/1.1/" xmlns:dcterms="http://purl.org/dc/terms/"><rdf:RDF><rdf:Description><dc:title>Pixel Art</dc:title><dc:creator>DiceBear</dc:creator><dc:source xsi:type="dcterms:URI">https://www.figma.com/community/file/1198754108850888330</dc:source><dcterms:license xsi:type="dcterms:URI">https://creativecommons.org/publicdomain/zero/1.0/</dcterms:license><dc:rights>„Pixel Art” (https://www.figma.com/community/file/1198754108850888330) by „DiceBear”, licensed under „CC0 1.0” (https://creativecommons.org/publicdomain/zero/1.0/)</dc:rights></rdf:Description></rdf:RDF></metadata><mask id="viewboxMask"><rect width="16" height="16" rx="0" ry="0" x="0" y="0" fill="#fff" /></mask><g mask="url(#viewboxMask)"><rect fill="#c0aede" width="16" height="16" x="0" y="0" /><path d="M4 2h8v1h1v3h1v2h-1v3h-1v1H9v1h4v1h1v2H2v-2h1v-1h4v-1H4v-1H3V8H2V6h1V3h1V2Z" fill="#f5cfa0"/><path d="M4 2h8v1h1v3h1v2h-1v3h-1v1H4v-1H3V8H2V6h1V3h1V2Z" fill="#fff" fill-opacity=".1"/><path d="M2 7h1v1H2zM13 7h1v1h-1z" fill="#d3d3d3"/><path d="M5 13H3v1H2v2h12v-2h-1v-1h-2v1H5v-1Z" fill="#44c585"/><path fill="#fff" fill-opacity=".3" d="M2 14h1v2H2zM6 14h1v2H6zM8 14h1v2H8zM10 14h1v2h-1zM4 13h1v3H4zM12 13h1v3h-1z"/><path fill="#fff" d="M12 5H9v3h3zM7 5H4v3h3z"/><path fill="#697b94" d="M12 6h-2v1h2zM7 6H5v1h2z"/><path fill="#fff" fill-opacity=".7" d="M12 6h-1v1h1zM7 6H6v1h1z"/><path fill-rule="evenodd" clip-rule="evenodd" d="M14 5H2v1h1v2h4V7h2v1h4V6h1V5Zm-2 1H9v1h3V6ZM7 7H4V6h3v1Z" fill="#191919"/><path fill="#000" fill-opacity=".3" d="M4 6h3v1H4z"/><path fill="#fff" fill-opacity=".2" d="M2 5h1v1H2zM7 5h2v1H7zM13 5h1v1h-1z"/><path fill="#000" fill-opacity=".3" d="M9 6h3v1H9z"/><path d="M10 11v-1H7V9H6v1h1v1h3Z" fill="#c98276"/><path d="M4 2h1v3H4zM6 2h1v2H6zM8 2h1v2H8zM10 2h1v2h-1z" fill="#a78961"/><path d="M4 0h8v1h1v1h1v3H2V2h1V1h1V0Z" fill="#614f8a"/><path fill="#fff" fill-opacity=".3" d="M11 2h1v3h-1zM9 2h1v3H9z"/></g></svg>