<svg xmlns="http://www.w3.org/2000/svg" viewBox="0 0 16 16" fill="none" shape-rendering="crispEdges"><metadata xmlns:rdf="http://www.w3.org/1999/02/22-rdf-syntax-ns#" xmlns:xsi="http://www.w3.org/2001/XMLSchema-instance" xmlns:dc="http://purl.org/dc/elements/1.1/" xmlns:dcterms="http://purl.org/dc/terms/"><rdf:RDF><rdf:Description><dc:title>Pixel Art</dc:title><dc:creator>DiceBear</dc:creator><dc:source xsi:type="dcterms:URI">https://www.figma.com/community/file/1198754108850888330</dc:source><dcterms:license xsi:type="dcterms:URI">https://creativecommons.org/publicdomain/zero/1.0/</dcterms:license><dc:rights>„Pixel Art” (https://www.figma.com/community/file/1198754108850888330) by „DiceBear”, licensed under „CC0 1.0” (https://creativecommons.org/publicdomain/zero/1.0/)</dc:rights></rdf:Description></rdf:RDF></metadata><mask id="viewboxMask"><rect width="16" height="16" rx="0" ry="0" x="0" y="0" fill="#fff" /></mask><g mask="url(#viewboxMask)"><rect fill="#1B1B1B" width="16" height="16" x="0" y="0" /><path d="M4 2h8v1h1v3h1v2h-1v3h-1v1H9v1h4v1h1v2H2v-2h1v-1h4v-1H4v-1H3V8H2V6h1V3h1V2Z" fill="#eac393"/><path d="M4 2h8v1h1v3h1v2h-1v3h-1v1H4v-1H3V8H2V6h1V3h1V2Z" fill="#fff" fill-opacity=".1"/><path d="M10 13h3v1h1v2H2v-2h1v-1h3v1h4v-1Z" fill="#000000"/><path fill="#fff" fill-opacity=".2" d="M11 14h1v2h-1zM4 14h1v2H4z"/><path fill="#fff" d="M4 5h3v3H4zM9 5h3v3H9z"/><path fill="#588387" d="M10 5h2v2h-2zM5 5h2v2H5z"/><path fill="#fff" fill-opacity=".4" d="M5 5h1v1H5zM6 6h1v1H6zM10 5h1v1h-1zM11 6h1v1h-1z"/><path fill="#fff" fill-opacity=".7" d="M11 5h1v1h-1zM6 5h1v1H6z"/><path fill-rule="evenodd" clip-rule="evenodd" d="M2 5v1h1v2h1v1h3V8h2v1h3V8h1V6h1V5H2Zm10 3H9V6h3v2ZM7 8H4V6h3v2Z" fill="#000000"/><path fill="#000" fill-opacity=".3" d="M9 6h3v2H9zM4 6h3v2H4z"/><path fill="#fff" fill-opacity=".2" d="M7 5h2v1H7zM2 5h2v1H2zM12 5h2v1h-2z"/><mask id="beardVariant01-a" style="mask-type:luminance" maskUnits="userSpaceOnUse" x="3" y="8" width="10" height="4"><path opacity=".9" d="M3 8h2v1h1v1h4V9h1V8h2v3h-1v1H4v-1H3V8Z" fill="#91cb15"/></mask><g mask="url(#beardVariant01-a)"><path fill="#91cb15" d="M0 0h16v16H0z"/><path fill="#fff" fill-opacity=".3" d="M0 0h16v16H0z"/></g><path d="M7 9v2h2V9H7Z" fill="#c98276"/><path d="M3 3h1v1H3zM5 2H4v1h1zM12 2h-1v1h1zM13 3h-1v1h1z" fill="#91cb15"/><path d="M12 0H4v2H2v3h12V2h-2V0Z" fill="#000000"/><path fill="#fff" fill-opacity=".3" d="M10 2h1v3h-1zM8 3h1v2H8z"/></g></svg>